<svg width="91" height="72" viewBox="0 0 91 72" fill="none" xmlns="http://www.w3.org/2000/svg">
<g id="Group">
<g id="Group_2">
<path id="Vector" fill-rule="evenodd" clip-rule="evenodd" d="M45.6458 24.9866C43.3836 21.0675 50.4575 12.7523 61.4452 6.407C72.4277 0.0667748 83.1694 -1.90307 85.4315 2.01599C86.6831 4.18583 87.9346 6.35568 89.1914 8.53064C91.4537 12.4446 84.3798 20.7598 73.3921 27.1051C62.4044 33.4453 51.6679 35.4152 49.4058 31.5012C48.1543 29.3263 46.8975 27.1564 45.6458 24.9866Z" fill="#FE9923"/>
</g>
<g id="Group_3">
<path id="Vector_2" fill-rule="evenodd" clip-rule="evenodd" d="M61.4452 6.407C72.4277 0.0667748 83.1694 -1.90307 85.4315 2.01599C87.6937 5.92993 80.6198 14.2451 69.6321 20.5904C58.6445 26.9358 47.9081 28.9005 45.6458 24.9866C43.3836 21.0675 50.4575 12.7523 61.4452 6.407Z" fill="#FECD3D"/>
</g>
<g id="Group_4">
<path id="Vector_3" fill-rule="evenodd" clip-rule="evenodd" d="M63.3586 9.7207C72.0995 4.67819 80.1583 2.27765 81.3638 4.3602C82.5692 6.44803 76.4599 12.2292 67.7187 17.2766C58.9778 22.3243 50.914 24.725 49.7136 22.6371C48.5083 20.5495 54.6177 14.7683 63.3586 9.7207Z" fill="#FEA832"/>
</g>
<g id="Group_5">
<path id="Vector_4" d="M84.6108 13.0141L86.6114 16.4816C87.0884 15.8968 87.5193 15.3224 87.8886 14.758L86.3087 12.0291L84.6108 13.0141ZM82.8974 20.3187C82.4152 20.7495 81.9073 21.1855 81.3842 21.6165L79.4759 18.3079L81.1738 17.3333L82.8974 20.3187ZM77.2343 24.6994C76.7008 25.0636 76.1519 25.4227 75.5928 25.7767L73.7718 22.622L75.4697 21.6474L77.2343 24.6994ZM71.1454 28.3414C70.5554 28.6543 69.9708 28.9467 69.391 29.234L67.6212 26.1767L69.3242 25.1919L71.1454 28.3414ZM64.6461 31.2808C64.005 31.5219 63.379 31.7425 62.7635 31.9425L61.0348 28.9571L62.7378 27.9774L64.6461 31.2808ZM57.5826 33.2402C56.8388 33.3633 56.1256 33.4455 55.4536 33.4864L53.8788 30.7575L55.5818 29.7726L57.5826 33.2402Z" fill="#C85929"/>
</g>
<g id="Group_6">
<path id="Vector_5" fill-rule="evenodd" clip-rule="evenodd" d="M43.9737 41.9914C46.2358 38.0775 39.1621 29.7572 28.1744 23.417C17.1919 17.0716 6.45021 15.1069 4.18813 19.0208C2.93645 21.1907 1.68495 23.3656 0.428156 25.5355C-1.83411 29.4494 5.23981 37.7697 16.2275 44.1099C27.2152 50.4553 37.9517 52.42 40.2138 48.5061C41.4704 46.3364 42.7219 44.1613 43.9737 41.9914Z" fill="#FE9923"/>
</g>
<g id="Group_7">
<path id="Vector_6" fill-rule="evenodd" clip-rule="evenodd" d="M28.1743 23.417C17.1917 17.0716 6.45007 15.1069 4.18799 19.0208C1.93102 22.9399 9.00475 31.2551 19.9873 37.5953C30.975 43.9406 41.7166 45.9054 43.9736 41.9914C46.2359 38.0775 39.162 29.7572 28.1743 23.417Z" fill="#FECD3D"/>
</g>
<g id="Group_8">
<path id="Vector_7" fill-rule="evenodd" clip-rule="evenodd" d="M26.261 26.7307C17.5252 21.6831 9.46135 19.2826 8.25588 21.3702C7.05041 23.453 13.1598 29.2392 21.9007 34.2815C30.6416 39.3292 38.7055 41.7297 39.911 39.6421C41.1113 37.5595 35.002 31.7784 26.261 26.7307Z" fill="#FEA832"/>
</g>
<g id="Group_9">
<path id="Vector_8" d="M5.009 30.0188L3.00846 33.4864C2.53139 32.9015 2.10564 32.3271 1.73633 31.7679L3.31111 29.0338L5.009 30.0188ZM6.72223 37.3234C7.20442 37.7543 7.71218 38.1904 8.23546 38.6213L10.1436 35.3178L8.44569 34.3381L6.72223 37.3234ZM12.3854 41.7093C12.9189 42.0684 13.4677 42.4275 14.0319 42.7815L15.8529 39.6268L14.1499 38.6522L12.3854 41.7093ZM18.4743 45.3513C19.0642 45.6591 19.6491 45.9566 20.2339 46.2388L21.9984 43.1815L20.2954 42.1966L18.4743 45.3513ZM24.9787 48.2855C25.6149 48.5266 26.2406 48.7473 26.8612 48.9473L28.5849 45.9619L26.8819 44.9873L24.9787 48.2855ZM32.0371 50.2501C32.7861 50.3681 33.4939 50.4501 34.1658 50.4912L35.7406 47.7622L34.0427 46.7774L32.0371 50.2501Z" fill="#C85929"/>
</g>
<g id="Group_10">
<path id="Vector_9" fill-rule="evenodd" clip-rule="evenodd" d="M42.3885 63.4693C40.1314 59.5554 47.2002 51.2402 58.1879 44.8949C69.1755 38.5546 79.9121 36.5848 82.1742 40.4987C83.4309 42.6737 84.6826 44.8435 85.9341 47.0134C88.1964 50.9324 81.1225 59.2476 70.1399 65.593C59.1522 71.9332 48.4106 73.903 46.1485 69.984C44.897 67.8141 43.6453 65.6443 42.3885 63.4693Z" fill="#FE9923"/>
</g>
<g id="Group_11">
<path id="Vector_10" fill-rule="evenodd" clip-rule="evenodd" d="M58.1879 44.8947C69.1755 38.5545 79.9121 36.5847 82.1741 40.4986C84.4364 44.4177 77.3625 52.7329 66.3748 59.0782C55.3923 65.4184 44.6508 67.3883 42.3885 63.4692C40.1314 59.5554 47.2002 51.2403 58.1879 44.8947Z" fill="#FECD3D"/>
</g>
<g id="Group_12">
<path id="Vector_11" fill-rule="evenodd" clip-rule="evenodd" d="M60.1013 48.2086C68.8422 43.161 76.9061 40.7654 78.1064 42.8481C79.3119 44.9358 73.2025 50.7169 64.4614 55.7646C55.7205 60.8071 47.6617 63.2076 46.4563 61.1251C45.251 59.0372 51.3603 53.2561 60.1013 48.2086Z" fill="#FEA832"/>
</g>
<g id="Group_13">
<path id="Vector_12" d="M81.3535 51.5018L83.3592 54.9695C83.8363 54.3847 84.262 53.8052 84.6313 53.2459L83.0565 50.517L81.3535 51.5018ZM79.6452 58.8013C79.1579 59.2373 78.6553 59.6681 78.1269 60.0992L76.2186 56.7956L77.9216 55.821L79.6452 58.8013ZM73.9821 63.1872C73.4435 63.5514 72.8946 63.9105 72.3355 64.2644L70.5145 61.1098L72.2175 60.13L73.9821 63.1872ZM67.8881 66.8292C67.3032 67.1369 66.7135 67.4345 66.1338 67.7166L64.369 64.6593L66.0669 63.6745L67.8881 66.8292ZM61.3888 69.7685C60.7528 70.0045 60.1218 70.2249 59.5062 70.4302L57.7826 67.4396L59.4805 66.465L61.3888 69.7685ZM54.3304 71.7281C53.5814 71.8512 52.8683 71.9281 52.2015 71.9692L50.6267 69.2403L52.3246 68.2554L54.3304 71.7281Z" fill="#C85929"/>
</g>
<g id="Group_14">
<path id="Vector_13" d="M37.9825 9.19238V12.1113H40.9011V14.6453H37.9825V17.5691H35.4484V14.6453H32.5244V12.1113H35.4484V9.19238H37.9825Z" fill="#FEA832"/>
</g>
<g id="Group_15">
<path id="Vector_14" d="M28.954 56.0109V58.9297H31.8778V61.4636H28.954V64.3876H26.4199V61.4636H23.5012V58.9297H26.4199V56.0109H28.954Z" fill="#FEA832"/>
</g>
<g id="Group_16">
<path id="Vector_15" d="M87.2064 27.3822V30.3009H90.1302V32.8351H87.2064V35.7589H84.6722V32.8351H81.7535V30.3009H84.6722V27.3822H87.2064Z" fill="#FEA832"/>
</g>
</g>
</svg>
