<svg width="77" height="77" viewBox="0 0 77 77" fill="none" xmlns="http://www.w3.org/2000/svg">
<g id="contract (1) 1">
<g id="Icons">
<path id="Vector" d="M35.4405 5.88916L5.21033 13.2054C4.55458 13.3636 3.93643 13.6494 3.3912 14.0465C2.84597 14.4437 2.38437 14.9444 2.03277 15.5201C1.68118 16.0957 1.44649 16.7351 1.34211 17.4015C1.23774 18.0679 1.26574 18.7483 1.4245 19.4039L14.1038 71.7896C14.262 72.4454 14.5478 73.0635 14.9449 73.6087C15.3421 74.154 15.8428 74.6156 16.4185 74.9672C16.9941 75.3188 17.6334 75.5535 18.2999 75.6578C18.9663 75.7622 19.6467 75.7342 20.3023 75.5754L59.6044 66.0544L35.4405 5.88916Z" fill="#F3D55B"/>
<g id="Group">
<path id="Vector_2" d="M8.5701 22.9178C8.25694 22.9165 7.95506 22.8008 7.72131 22.5924C7.48755 22.384 7.33806 22.0973 7.30098 21.7864C7.26391 21.4754 7.34181 21.1616 7.52002 20.9041C7.69822 20.6466 7.96444 20.4632 8.26851 20.3883L10.7633 19.7839C10.929 19.7383 11.1022 19.7265 11.2726 19.7491C11.443 19.7717 11.6071 19.8284 11.7552 19.9156C11.9033 20.0029 12.0323 20.119 12.1346 20.2571C12.237 20.3952 12.3105 20.5525 12.351 20.7195C12.3914 20.8866 12.3978 21.0601 12.3699 21.2297C12.342 21.3993 12.2803 21.5615 12.1885 21.7068C12.0966 21.8521 11.9766 21.9775 11.8354 22.0755C11.6942 22.1735 11.5347 22.2422 11.3665 22.2774L8.87296 22.8818C8.77389 22.9063 8.67215 22.9184 8.5701 22.9178Z" fill="#3F5C6C"/>
<path id="Vector_3" d="M17.298 20.8028C16.9841 20.8025 16.6811 20.6871 16.4465 20.4785C16.2119 20.2699 16.0619 19.9825 16.0249 19.6707C15.9879 19.359 16.0665 19.0444 16.2458 18.7867C16.425 18.529 16.6926 18.3459 16.9977 18.2721L26.6484 15.9364C26.8141 15.8909 26.9873 15.879 27.1577 15.9017C27.3281 15.9243 27.4922 15.981 27.6403 16.0682C27.7884 16.1555 27.9174 16.2716 28.0197 16.4097C28.1221 16.5478 28.1957 16.705 28.2361 16.8721C28.2765 17.0392 28.2829 17.2126 28.255 17.3822C28.2271 17.5518 28.1654 17.7141 28.0736 17.8594C27.9817 18.0047 27.8617 18.1301 27.7205 18.2281C27.5793 18.3261 27.4198 18.3947 27.2516 18.43L17.6022 20.7669C17.5026 20.7909 17.4005 20.8029 17.298 20.8028Z" fill="#3F5C6C"/>
<path id="Vector_4" d="M10.0793 29.1548C9.76523 29.1548 9.46206 29.0396 9.22721 28.8311C8.99235 28.6226 8.84212 28.3352 8.80496 28.0233C8.76779 27.7115 8.84628 27.3968 9.02555 27.1389C9.20483 26.881 9.47244 26.6979 9.77771 26.6241L12.2725 26.0196C12.6033 25.9395 12.9525 25.994 13.2431 26.1713C13.5337 26.3485 13.742 26.634 13.8221 26.9648C13.9023 27.2956 13.8477 27.6447 13.6705 27.9354C13.4932 28.226 13.2078 28.4343 12.877 28.5144L10.3822 29.1176C10.2831 29.1425 10.1814 29.155 10.0793 29.1548Z" fill="#3F5C6C"/>
<path id="Vector_5" d="M18.8124 27.0398C18.4994 27.038 18.198 26.9218 17.9647 26.7132C17.7314 26.5046 17.5824 26.218 17.5456 25.9072C17.5089 25.5964 17.587 25.2829 17.7652 25.0257C17.9434 24.7684 18.2095 24.5852 18.5134 24.5104L26.6497 22.5456C26.9776 22.4741 27.3204 22.5338 27.6048 22.7121C27.8892 22.8903 28.0924 23.1728 28.1709 23.4991C28.2495 23.8254 28.1971 24.1694 28.025 24.4575C27.8529 24.7456 27.5748 24.9549 27.2503 25.0404L19.1217 27.0039C19.0205 27.029 18.9166 27.041 18.8124 27.0398Z" fill="#3F5C6C"/>
<path id="Vector_6" d="M11.5885 35.3918C11.275 35.3902 10.9729 35.274 10.7392 35.0649C10.5055 34.8559 10.3565 34.5685 10.3201 34.2571C10.2838 33.9457 10.3627 33.6318 10.542 33.3746C10.7213 33.1174 10.9886 32.9347 11.2933 32.861L13.7868 32.2579C13.9523 32.213 14.1251 32.2017 14.295 32.2248C14.4649 32.2478 14.6284 32.3046 14.776 32.3919C14.9236 32.4791 15.0522 32.5951 15.1542 32.7329C15.2562 32.8707 15.3295 33.0275 15.3699 33.1941C15.4103 33.3608 15.4169 33.5338 15.3893 33.703C15.3617 33.8722 15.3005 34.0342 15.2093 34.1793C15.1181 34.3245 14.9987 34.4499 14.8582 34.5481C14.7177 34.6464 14.5589 34.7155 14.3913 34.7514L11.8978 35.3558C11.7965 35.38 11.6927 35.3921 11.5885 35.3918Z" fill="#3F5C6C"/>
<path id="Vector_7" d="M20.3139 33.2768C19.9999 33.2765 19.697 33.1611 19.4624 32.9525C19.2277 32.7438 19.0777 32.4564 19.0407 32.1447C19.0038 31.8329 19.0823 31.5184 19.2616 31.2606C19.4409 31.0029 19.7084 30.8198 20.0136 30.7461L26.6484 29.1419C26.8141 29.0963 26.9873 29.0845 27.1577 29.1071C27.3281 29.1298 27.4922 29.1864 27.6403 29.2737C27.7884 29.3609 27.9174 29.4771 28.0197 29.6152C28.1221 29.7532 28.1957 29.9105 28.2361 30.0776C28.2765 30.2446 28.2829 30.4181 28.255 30.5877C28.2271 30.7573 28.1654 30.9196 28.0736 31.0649C27.9817 31.2102 27.8617 31.3355 27.7205 31.4335C27.5793 31.5315 27.4198 31.6002 27.2516 31.6354L20.6168 33.2396C20.5177 33.2645 20.416 33.277 20.3139 33.2768Z" fill="#3F5C6C"/>
<path id="Vector_8" d="M13.0977 41.6288C12.7837 41.6285 12.4808 41.5131 12.2462 41.3045C12.0116 41.0959 11.8616 40.8085 11.8246 40.4967C11.7876 40.1849 11.8661 39.8704 12.0454 39.6127C12.2247 39.3549 12.4922 39.1719 12.7974 39.0981L15.2922 38.5001C15.4577 38.4552 15.6304 38.4439 15.8003 38.4669C15.9702 38.49 16.1338 38.5468 16.2814 38.634C16.4289 38.7213 16.5575 38.8373 16.6595 38.9751C16.7615 39.1129 16.8349 39.2697 16.8753 39.4363C16.9157 39.6029 16.9223 39.776 16.8947 39.9452C16.8671 40.1144 16.8059 40.2763 16.7146 40.4215C16.6234 40.5667 16.504 40.6921 16.3635 40.7903C16.2231 40.8886 16.0643 40.9577 15.8966 40.9936L13.4006 41.598C13.3013 41.6208 13.1995 41.6311 13.0977 41.6288Z" fill="#3F5C6C"/>
<path id="Vector_9" d="M21.8282 39.5139C21.514 39.5142 21.2107 39.3992 20.9756 39.1908C20.7405 38.9824 20.59 38.695 20.5527 38.383C20.5153 38.0711 20.5937 37.7563 20.773 37.4983C20.9523 37.2402 21.22 37.057 21.5253 36.9831L26.6471 35.7396C26.8123 35.6956 26.9846 35.685 27.1539 35.7084C27.3232 35.7319 27.4861 35.789 27.6331 35.8763C27.78 35.9636 27.908 36.0793 28.0096 36.2168C28.1112 36.3542 28.1844 36.5106 28.2247 36.6767C28.2651 36.8428 28.2718 37.0153 28.2446 37.184C28.2174 37.3527 28.1567 37.5143 28.0662 37.6593C27.9757 37.8043 27.8571 37.9297 27.7174 38.0283C27.5778 38.1268 27.4198 38.1964 27.2529 38.2331L22.1324 39.4779C22.0327 39.5018 21.9307 39.5139 21.8282 39.5139Z" fill="#3F5C6C"/>
</g>
<path id="Vector_10" d="M65.45 65.45H70.5833C71.9448 65.45 73.2505 64.9092 74.2132 63.9465C75.1758 62.9838 75.7167 61.6781 75.7167 60.3167V6.41666C75.7167 5.05521 75.1758 3.74953 74.2132 2.78684C73.2505 1.82416 71.9448 1.28333 70.5833 1.28333H32.0833C30.7219 1.28333 29.4162 1.82416 28.4535 2.78684C27.4908 3.74953 26.95 5.05521 26.95 6.41666V60.3167C26.95 61.6781 27.4908 62.9838 28.4535 63.9465C29.4162 64.9092 30.7219 65.45 32.0833 65.45H65.45Z" fill="#F9EAB0"/>
<path id="Vector_11" d="M65.45 56.4923V74.4333C65.4499 74.6871 65.3746 74.9352 65.2336 75.1461C65.0926 75.3571 64.8922 75.5216 64.6577 75.6187C64.4233 75.7158 64.1653 75.7412 63.9164 75.6917C63.6675 75.6422 63.4388 75.5201 63.2593 75.3406L59.9406 72.0219C59.7 71.7813 59.3736 71.6462 59.0333 71.6462C58.693 71.6462 58.3667 71.7813 58.126 72.0219L54.8073 75.3406C54.6278 75.5201 54.3992 75.6422 54.1503 75.6917C53.9014 75.7412 53.6434 75.7158 53.4089 75.6187C53.1745 75.5216 52.9741 75.3571 52.833 75.1461C52.692 74.9352 52.6167 74.6871 52.6167 74.4333V56.4923H65.45Z" fill="#C03A2B"/>
<path id="Vector_12" d="M60.1883 36.4095L60.4027 36.2722C60.6531 36.1116 60.9342 36.0051 61.2282 35.9594C61.5221 35.9136 61.8224 35.9298 62.1097 36.0067C62.3971 36.0837 62.6652 36.2197 62.897 36.4062C63.1287 36.5927 63.319 36.8254 63.4557 37.0897L63.5725 37.3168C63.7601 37.6803 64.0482 37.9824 64.4023 38.1871C64.7565 38.3918 65.162 38.4906 65.5706 38.4718L65.8273 38.459C66.1243 38.4455 66.4209 38.494 66.6981 38.6015C66.9752 38.709 67.227 38.8731 67.4372 39.0834C67.6474 39.2936 67.8115 39.5453 67.919 39.8225C68.0265 40.0997 68.0751 40.3963 68.0616 40.6933L68.0488 40.9499C68.0299 41.3586 68.1288 41.7641 68.3335 42.1182C68.5382 42.4724 68.8402 42.7604 69.2038 42.9481L69.4309 43.0649C69.6951 43.2015 69.9279 43.3918 70.1144 43.6236C70.3008 43.8554 70.4369 44.1235 70.5138 44.4109C70.5908 44.6982 70.6069 44.9985 70.5612 45.2924C70.5155 45.5863 70.409 45.8675 70.2484 46.1179L70.1111 46.3322C69.89 46.6769 69.7725 47.0778 69.7725 47.4872C69.7725 47.8967 69.89 48.2976 70.1111 48.6422L70.2484 48.8565C70.409 49.107 70.5155 49.3881 70.5612 49.6821C70.6069 49.976 70.5908 50.2762 70.5138 50.5636C70.4369 50.8509 70.3008 51.1191 70.1144 51.3508C69.9279 51.5826 69.6951 51.7729 69.4309 51.9096L69.2038 52.0264C68.8402 52.214 68.5382 52.502 68.3335 52.8562C68.1288 53.2104 68.0299 53.6159 68.0488 54.0245L68.0616 54.2812C68.0751 54.5782 68.0265 54.8747 67.919 55.1519C67.8115 55.4291 67.6474 55.6809 67.4372 55.8911C67.227 56.1013 66.9752 56.2654 66.6981 56.3729C66.4209 56.4804 66.1243 56.529 65.8273 56.5155L65.5706 56.5026C65.162 56.4838 64.7565 56.5826 64.4023 56.7874C64.0482 56.9921 63.7601 57.2941 63.5725 57.6576L63.4557 57.8848C63.319 58.149 63.1287 58.3818 62.897 58.5683C62.6652 58.7547 62.3971 58.8908 62.1097 58.9677C61.8224 59.0447 61.5221 59.0608 61.2282 59.0151C60.9342 58.9694 60.6531 58.8628 60.4027 58.7023L60.1883 58.565C59.8437 58.3439 59.4428 58.2264 59.0333 58.2264C58.6239 58.2264 58.223 58.3439 57.8783 58.565L57.664 58.7023C57.4136 58.8628 57.1324 58.9694 56.8385 59.0151C56.5446 59.0608 56.2443 59.0447 55.957 58.9677C55.6696 58.8908 55.4015 58.7547 55.1697 58.5683C54.938 58.3818 54.7476 58.149 54.611 57.8848L54.4942 57.6576C54.3065 57.2941 54.0185 56.9921 53.6643 56.7874C53.3102 56.5826 52.9047 56.4838 52.496 56.5026L52.2394 56.5155C51.9424 56.529 51.6458 56.4804 51.3686 56.3729C51.0914 56.2654 50.8397 56.1013 50.6295 55.8911C50.4192 55.6809 50.2551 55.4291 50.1476 55.1519C50.0401 54.8747 49.9916 54.5782 50.0051 54.2812L50.0179 54.0245C50.0367 53.6159 49.9379 53.2104 49.7332 52.8562C49.5285 52.502 49.2264 52.214 48.8629 52.0264L48.6358 51.9096C48.3716 51.7729 48.1388 51.5826 47.9523 51.3508C47.7658 51.1191 47.6298 50.8509 47.5528 50.5636C47.4759 50.2762 47.4598 49.976 47.5055 49.6821C47.5512 49.3881 47.6577 49.107 47.8183 48.8565L47.9556 48.6422C48.1767 48.2976 48.2942 47.8967 48.2942 47.4872C48.2942 47.0778 48.1767 46.6769 47.9556 46.3322L47.8183 46.1179C47.6577 45.8675 47.5512 45.5863 47.5055 45.2924C47.4598 44.9985 47.4759 44.6982 47.5528 44.4109C47.6298 44.1235 47.7658 43.8554 47.9523 43.6236C48.1388 43.3918 48.3716 43.2015 48.6358 43.0649L48.8629 42.9481C49.2264 42.7604 49.5285 42.4724 49.7332 42.1182C49.9379 41.7641 50.0367 41.3586 50.0179 40.9499L50.0051 40.6933C49.9916 40.3963 50.0401 40.0997 50.1476 39.8225C50.2551 39.5453 50.4192 39.2936 50.6295 39.0834C50.8397 38.8731 51.0914 38.709 51.3686 38.6015C51.6458 38.494 51.9424 38.4455 52.2394 38.459L52.496 38.4718C52.9047 38.4906 53.3102 38.3918 53.6643 38.1871C54.0185 37.9824 54.3065 37.6803 54.4942 37.3168L54.611 37.0897C54.7476 36.8254 54.938 36.5927 55.1697 36.4062C55.4015 36.2197 55.6696 36.0837 55.957 36.0067C56.2443 35.9298 56.5446 35.9136 56.8385 35.9594C57.1324 36.0051 57.4136 36.1116 57.664 36.2722L57.8783 36.4095C58.223 36.6306 58.6239 36.7481 59.0333 36.7481C59.4428 36.7481 59.8437 36.6306 60.1883 36.4095Z" fill="#E64C3C"/>
<path id="Vector_13" d="M35.9333 11.5499H33.3667C33.0263 11.5499 32.6999 11.4147 32.4592 11.1741C32.2185 10.9334 32.0833 10.607 32.0833 10.2666C32.0833 9.92625 32.2185 9.59983 32.4592 9.35916C32.6999 9.11848 33.0263 8.98328 33.3667 8.98328H35.9333C36.2737 8.98328 36.6001 9.11848 36.8408 9.35916C37.0815 9.59983 37.2167 9.92625 37.2167 10.2666C37.2167 10.607 37.0815 10.9334 36.8408 11.1741C36.6001 11.4147 36.2737 11.5499 35.9333 11.5499Z" fill="#3F5C6C"/>
<path id="Vector_14" d="M69.2998 11.5499H42.3498C42.0094 11.5499 41.683 11.4147 41.4423 11.1741C41.2016 10.9334 41.0664 10.607 41.0664 10.2666C41.0664 9.92625 41.2016 9.59983 41.4423 9.35916C41.683 9.11848 42.0094 8.98328 42.3498 8.98328H69.2998C69.6401 8.98328 69.9665 9.11848 70.2072 9.35916C70.4479 9.59983 70.5831 9.92625 70.5831 10.2666C70.5831 10.607 70.4479 10.9334 70.2072 11.1741C69.9665 11.4147 69.6401 11.5499 69.2998 11.5499Z" fill="#3F5C6C"/>
<path id="Vector_15" d="M59.0333 53.9C62.5772 53.9 65.45 51.0271 65.45 47.4833C65.45 43.9395 62.5772 41.0667 59.0333 41.0667C55.4895 41.0667 52.6167 43.9395 52.6167 47.4833C52.6167 51.0271 55.4895 53.9 59.0333 53.9Z" fill="#E57E25"/>
<path id="Vector_16" d="M35.9333 17.9667H33.3667C33.0263 17.9667 32.6999 17.8315 32.4592 17.5908C32.2185 17.3501 32.0833 17.0237 32.0833 16.6834C32.0833 16.343 32.2185 16.0166 32.4592 15.7759C32.6999 15.5352 33.0263 15.4 33.3667 15.4H35.9333C36.2737 15.4 36.6001 15.5352 36.8408 15.7759C37.0815 16.0166 37.2167 16.343 37.2167 16.6834C37.2167 17.0237 37.0815 17.3501 36.8408 17.5908C36.6001 17.8315 36.2737 17.9667 35.9333 17.9667Z" fill="#3F5C6C"/>
<path id="Vector_17" d="M69.2998 17.9667H42.3498C42.0094 17.9667 41.683 17.8315 41.4423 17.5908C41.2016 17.3501 41.0664 17.0237 41.0664 16.6834C41.0664 16.343 41.2016 16.0166 41.4423 15.7759C41.683 15.5352 42.0094 15.4 42.3498 15.4H69.2998C69.6401 15.4 69.9665 15.5352 70.2072 15.7759C70.4479 16.0166 70.5831 16.343 70.5831 16.6834C70.5831 17.0237 70.4479 17.3501 70.2072 17.5908C69.9665 17.8315 69.6401 17.9667 69.2998 17.9667Z" fill="#3F5C6C"/>
<path id="Vector_18" d="M35.9333 24.3833H33.3667C33.0263 24.3833 32.6999 24.2481 32.4592 24.0074C32.2185 23.7668 32.0833 23.4403 32.0833 23.1C32.0833 22.7596 32.2185 22.4332 32.4592 22.1925C32.6999 21.9519 33.0263 21.8167 33.3667 21.8167H35.9333C36.2737 21.8167 36.6001 21.9519 36.8408 22.1925C37.0815 22.4332 37.2167 22.7596 37.2167 23.1C37.2167 23.4403 37.0815 23.7668 36.8408 24.0074C36.6001 24.2481 36.2737 24.3833 35.9333 24.3833Z" fill="#3F5C6C"/>
<path id="Vector_19" d="M69.2998 24.3833H42.3498C42.0094 24.3833 41.683 24.2481 41.4423 24.0074C41.2016 23.7668 41.0664 23.4403 41.0664 23.1C41.0664 22.7596 41.2016 22.4332 41.4423 22.1925C41.683 21.9519 42.0094 21.8167 42.3498 21.8167H69.2998C69.6401 21.8167 69.9665 21.9519 70.2072 22.1925C70.4479 22.4332 70.5831 22.7596 70.5831 23.1C70.5831 23.4403 70.4479 23.7668 70.2072 24.0074C69.9665 24.2481 69.6401 24.3833 69.2998 24.3833Z" fill="#3F5C6C"/>
<path id="Vector_20" d="M35.9333 30.7999H33.3667C33.0263 30.7999 32.6999 30.6647 32.4592 30.4241C32.2185 30.1834 32.0833 29.857 32.0833 29.5166C32.0833 29.1762 32.2185 28.8498 32.4592 28.6092C32.6999 28.3685 33.0263 28.2333 33.3667 28.2333H35.9333C36.2737 28.2333 36.6001 28.3685 36.8408 28.6092C37.0815 28.8498 37.2167 29.1762 37.2167 29.5166C37.2167 29.857 37.0815 30.1834 36.8408 30.4241C36.6001 30.6647 36.2737 30.7999 35.9333 30.7999Z" fill="#3F5C6C"/>
<path id="Vector_21" d="M48.7664 30.7999H42.3498C42.0094 30.7999 41.683 30.6647 41.4423 30.4241C41.2016 30.1834 41.0664 29.857 41.0664 29.5166C41.0664 29.1762 41.2016 28.8498 41.4423 28.6092C41.683 28.3685 42.0094 28.2333 42.3498 28.2333H48.7664C49.1068 28.2333 49.4332 28.3685 49.6739 28.6092C49.9146 28.8498 50.0498 29.1762 50.0498 29.5166C50.0498 29.857 49.9146 30.1834 49.6739 30.4241C49.4332 30.6647 49.1068 30.7999 48.7664 30.7999Z" fill="#3F5C6C"/>
</g>
</g>
</svg>
