<svg width="133" height="128" viewBox="0 0 133 128" fill="none" xmlns="http://www.w3.org/2000/svg">
<g id="Group">
<path id="Vector" d="M109.663 1.31448C80.7962 -0.43816 51.9291 -0.43816 23.062 1.31448C11.4839 2.01751 2.22504 11.148 1.26589 22.708C-0.420902 43.0385 -0.420902 63.3687 1.26538 83.6992C2.22607 95.2794 11.5158 104.397 23.1149 105.097C27.7191 105.375 32.3232 105.608 36.9274 105.797C39.5046 105.903 41.9457 106.983 43.7697 108.806L59.8491 124.886C63.4466 128.483 69.2795 128.483 72.8771 124.886L88.9565 108.806C90.7804 106.983 93.2215 105.904 95.7988 105.797C100.403 105.608 105.007 105.375 109.611 105.097C121.21 104.397 130.5 95.2797 131.461 83.6994C133.147 63.369 133.147 43.0388 131.46 22.7083C130.5 11.148 121.241 2.01751 109.663 1.31448Z" fill="#9DC6FB"/>
<path id="Vector_2" d="M67.7161 127.481C64.9307 127.895 61.9931 127.03 59.8488 124.885L43.7697 108.806C41.9457 106.982 39.5048 105.903 36.9279 105.797C32.324 105.61 27.7201 105.375 23.1159 105.097C11.5152 104.397 2.22735 95.2802 1.26587 83.7008C-0.421958 63.3703 -0.421958 43.0396 1.26587 22.7091C2.18173 11.6665 10.6714 2.84061 21.5217 1.45996C13.9722 4.83822 8.45219 13.4184 7.75798 22.7091C6.24124 43.0396 6.24124 63.3703 7.75798 83.7008C8.62328 95.2802 16.9873 104.397 27.429 105.097C31.5735 105.375 39.7239 105.61 43.8687 105.797C46.1893 105.903 48.3873 106.982 50.0295 108.806L64.5037 124.885C65.8121 126.338 66.7948 127.203 67.7161 127.481Z" fill="#80B4FB"/>
<g id="Group_2">
<path id="Vector_3" d="M74.0348 53.4639L104.977 71.3286C108.996 73.6484 114.018 70.7487 114.018 66.1088V40.819C114.018 36.1791 108.995 33.2794 104.977 35.5992L74.0348 53.4639Z" fill="#21386B"/>
<path id="Vector_4" d="M83.1029 79.1379C68.156 80.0387 53.209 80.0387 38.2621 79.1379C32.6276 78.7983 28.0981 74.3707 27.6136 68.7464C26.7358 58.558 26.7358 48.3696 27.6136 38.1814C28.0981 32.5575 32.6276 28.1298 38.2621 27.79C53.209 26.8892 68.156 26.8892 83.1029 27.79C88.7374 28.1296 93.2669 32.5572 93.7514 38.1814C94.6292 48.3698 94.6292 58.5583 93.7514 68.7464C93.2669 74.3707 88.7374 78.7983 83.1029 79.1379Z" fill="#26457D"/>
<path id="Vector_5" d="M93.7525 68.7522C93.2638 74.371 88.7346 78.796 83.1026 79.1379C68.1558 80.0379 53.209 80.0379 38.2621 79.1379C32.6299 78.796 28.1009 74.371 27.6149 68.7522C29.6472 69.6709 32.1628 70.2477 34.908 70.3439C52.0899 70.9341 69.2746 70.9341 86.4567 70.3439C89.202 70.2479 91.7204 69.6709 93.7525 68.7522Z" fill="#21386B"/>
<path id="Vector_6" d="M71.7661 49.5861L59.8325 42.6961C56.8472 40.9725 53.1159 43.127 53.1159 46.5739V60.3537C53.1159 63.8006 56.8475 65.9551 59.8325 64.2315L71.7661 57.3415C74.7513 55.6184 74.7513 51.3097 71.7661 49.5861Z" fill="#EE596B"/>
</g>
</g>
</svg>
