<svg width="32" height="32" viewBox="0 0 32 32" fill="none" xmlns="http://www.w3.org/2000/svg">
<g id="fi-sr-star" clip-path="url(#clip0_3_311)">
<path id="Vector" d="M1.76906 16.5338L6.51572 20.0005L4.71306 25.5831C4.42174 26.449 4.41805 27.3858 4.70254 28.2539C4.98702 29.122 5.54445 29.875 6.29172 30.4005C7.02619 30.9428 7.91625 31.2334 8.82926 31.2288C9.74228 31.2243 10.6294 30.9248 11.3584 30.3751L15.9997 26.9591L20.6424 30.3711C21.3755 30.9104 22.2608 31.2033 23.1709 31.2077C24.081 31.2122 24.9691 30.9279 25.7074 30.3958C26.4458 29.8637 26.9964 29.1112 27.2801 28.2464C27.5638 27.3817 27.566 26.4492 27.2864 25.5831L25.4837 20.0005L30.2304 16.5338C30.9626 15.9985 31.5069 15.2455 31.7855 14.3823C32.0642 13.5192 32.0629 12.59 31.782 11.7277C31.501 10.8653 30.9547 10.1137 30.2211 9.58034C29.4875 9.04698 28.6041 8.75909 27.6971 8.7578H21.8664L20.0971 3.24313C19.8188 2.37508 19.2721 1.61782 18.5357 1.08056C17.7993 0.54329 16.9113 0.253784 15.9997 0.253784C15.0882 0.253784 14.2002 0.54329 13.4638 1.08056C12.7274 1.61782 12.1806 2.37508 11.9024 3.24313L10.1331 8.7578H4.30772C3.40072 8.75909 2.51731 9.04698 1.7837 9.58034C1.05008 10.1137 0.503778 10.8653 0.222818 11.7277C-0.0581408 12.59 -0.0593843 13.5192 0.219265 14.3823C0.497915 15.2455 1.0422 15.9985 1.77439 16.5338H1.76906Z" fill="#FFE03D"/>
</g>
<defs>
<clipPath id="clip0_3_311">
<rect width="32" height="32" fill="white"/>
</clipPath>
</defs>
</svg>
